# xmcd
# Copyright (C) 1995-1998 Ti Kan
#
# Track frame offsets:
#       150
#       18906
#       46929
#       73913
#       89304
#       103936
#       133267
#       159777
#       187023
#       202215
#       233212
#       254823
#       283953
#
# Disc length: 3975 seconds
#
# Revision: 0
# Processed by: cddbd v1.5.2PL0 Copyright (c) Steve Scherf et al.
# Submitted via: CD-Import v1.0
#
DISCID=c90f850d
DTITLE=Rolf Und Alexandra Becker - Dickie Dick Dickens 1
DYEAR=57
DGENRE=
TTITLE0=Dickie Dick Dickens 1.01
TTITLE1=Dickie Dick Dickens 1.02
TTITLE2=Dickie Dick Dickens 1.03
TTITLE3=Dickie Dick Dickens 1.04
TTITLE4=Dickie Dick Dickens 1.05
TTITLE5=Dickie Dick Dickens 1.06
TTITLE6=Dickie Dick Dickens 1.07
TTITLE7=Dickie Dick Dickens 1.08
TTITLE8=Dickie Dick Dickens 1.09
TTITLE9=Dickie Dick Dickens 1.10
TTITLE10=Dickie Dick Dickens 1.11
TTITLE11=Dickie Dick Dickens 1.12
TTITLE12=Dickie Dick Dickens 1.13
EXTD=
EXTT0=
EXTT1=
EXTT2=
EXTT3=
EXTT4=
EXTT5=
EXTT6=
EXTT7=
EXTT8=
EXTT9=
EXTT10=
EXTT11=
EXTT12=
PLAYORDER=
